<svg width="60" height="69" viewBox="0 0 60 69" fill="none" xmlns="http://www.w3.org/2000/svg">
<path d="M5.45852 61.2468L0 0H60L54.5342 61.237L29.9635 68.0493L5.45852 61.2468Z" fill="#1572B6"/>
<path d="M30 62.8435L49.8558 57.3389L54.5269 5.00897H30V62.8435Z" fill="#33A9DC"/>
<path d="M30 27.198H39.9401L40.6254 19.506H30V11.9938H48.8351L48.6552 14.0086L46.8106 34.7101H30V27.198Z" fill="white"/>
<path d="M30.0463 46.7062L30.0122 46.7159L21.647 44.4557L21.1124 38.4649H13.571L14.6234 50.2593L30.0098 54.5318L30.0463 54.5221V46.7062Z" fill="#EBEBEB"/>
<path d="M39.301 34.3916L38.3969 44.4507L30.0195 46.7109V54.5269L45.4181 50.2592L45.5323 48.9906L46.8374 34.3916H39.301Z" fill="white"/>
<path d="M30.0268 11.9938V19.506H11.8819L11.7313 17.8169L11.3886 14.0086L11.2087 11.9938H30.0268ZM30.0001 27.198V34.7101H21.7394L21.5887 33.0211L21.2484 29.2127L21.0686 27.198H30.0001Z" fill="#EBEBEB"/>
</svg>
