<svg width="50" height="75" viewBox="0 0 50 75" fill="none" xmlns="http://www.w3.org/2000/svg">
<path d="M12.5 75C19.4 75 25 69.4 25 62.5V50H12.5C5.6 50 0 55.6 0 62.5C0 69.4 5.6 75 12.5 75Z" fill="#0ACF83"/>
<path d="M0 37.5C0 30.6 5.6 25 12.5 25H25V50H12.5C5.6 50 0 44.4 0 37.5Z" fill="#A259FF"/>
<path d="M0 12.5C0 5.6 5.6 0 12.5 0H25V25H12.5C5.6 25 0 19.4 0 12.5Z" fill="#F24E1E"/>
<path d="M25 0H37.5C44.4 0 50 5.6 50 12.5C50 19.4 44.4 25 37.5 25H25V0Z" fill="#FF7262"/>
<path d="M50 37.5C50 44.4 44.4 50 37.5 50C30.6 50 25 44.4 25 37.5C25 30.6 30.6 25 37.5 25C44.4 25 50 30.6 50 37.5Z" fill="#1ABCFE"/>
</svg>
