<svg width="60" height="60" viewBox="0 0 60 60" fill="none" xmlns="http://www.w3.org/2000/svg">
<path d="M1.77883 25.7668L19.1318 8.38379L24.2057 13.4876C23.4851 16.0395 24.656 18.8316 26.9977 20.1826V36.8151C25.1964 37.8359 23.9955 39.7873 23.9955 42.009C23.9955 43.6015 24.6281 45.1288 25.7542 46.2548C26.8802 47.3809 28.4075 48.0135 30 48.0135C31.5925 48.0135 33.1198 47.3809 34.2458 46.2548C35.3719 45.1288 36.0045 43.6015 36.0045 42.009C36.0045 39.7873 34.8036 37.8359 33.0023 36.8151V22.2242L39.2169 28.4989C39.0068 28.9492 39.0068 29.4596 39.0068 30C39.0068 31.5925 39.6394 33.1198 40.7654 34.2458C41.8915 35.3719 43.4188 36.0045 45.0113 36.0045C46.6038 36.0045 48.131 35.3719 49.2571 34.2458C50.3831 33.1198 51.0158 31.5925 51.0158 30C51.0158 28.4075 50.3831 26.8802 49.2571 25.7542C48.131 24.6281 46.6038 23.9955 45.0113 23.9955C44.4709 23.9955 43.9605 23.9955 43.5101 24.2057L35.7943 16.4899C36.1671 15.0993 36.0226 13.6208 35.3876 12.3287C34.7527 11.0367 33.6704 10.019 32.3418 9.4646C31.0508 8.98424 29.6998 8.86415 28.4989 9.1944L23.395 4.12059L25.7668 1.77883C28.1086 -0.592945 31.8914 -0.592945 34.2332 1.77883L58.2212 25.7668C60.5929 28.1086 60.5929 31.8914 58.2212 34.2332L34.2332 58.2212C31.8914 60.5929 28.1086 60.5929 25.7668 58.2212L1.77883 34.2332C-0.592945 31.8914 -0.592945 28.1086 1.77883 25.7668Z" fill="#F24E1E"/>
</svg>
