<svg width="60" height="69" viewBox="0 0 60 69" fill="none" xmlns="http://www.w3.org/2000/svg">
<path d="M5.46051 61.2418L0 0H60L54.5322 61.2321L29.9636 68.0437L5.46051 61.2418Z" fill="#E44F26"/>
<path d="M30 62.8383L49.8542 57.3341L54.5249 5.00842H30V62.8383Z" fill="#F1662A"/>
<path d="M30 27.7206H20.0608L19.3755 20.0292H30V12.5176H11.1665L11.3463 14.5347L13.1908 35.2321H30V27.7206ZM30 47.2272L29.966 47.237L21.6015 44.9794L21.0669 38.9891H13.5262L14.5784 50.7801L29.966 55.0523L30 55.0426V47.2272Z" fill="#EBEBEB"/>
<path d="M29.9731 27.7206V35.2321H39.2222L38.3522 44.9745L29.9731 47.2345V55.0498L45.3729 50.7801L45.4847 49.5116L47.249 29.7376L47.4337 27.7206H29.9731ZM29.9731 12.5176V20.0292H48.1165L48.2672 18.3427L48.6098 14.5347L48.7897 12.5176H29.9731Z" fill="white"/>
</svg>
