<svg width="60" height="43" viewBox="0 0 60 43" fill="none" xmlns="http://www.w3.org/2000/svg">
<path d="M0.000355348 34.7646L6.96544 30.5493C8.30939 32.9318 9.53175 34.9477 12.4639 34.9477C15.2745 34.9477 17.0465 33.8484 17.0465 29.5719V0.489227H25.6002V29.6928C25.6002 38.5519 20.4071 42.5844 12.8305 42.5844C5.98806 42.5844 2.01628 39.0407 0 34.7639M30.246 33.848L37.2104 29.8158C39.0439 32.8099 41.4268 35.0092 45.6421 35.0092C49.1865 35.0092 51.4463 33.2372 51.4463 30.7932C51.4463 27.8607 49.1247 26.8218 45.2144 25.1116L43.0765 24.1947C36.9054 21.5679 32.8116 18.2685 32.8116 11.3034C32.8116 4.88801 37.6996 0 45.3371 0C50.7747 0 54.685 1.89433 57.4952 6.84313L50.8355 11.12C49.3689 8.49285 47.7811 7.45431 45.3371 7.45431C42.8319 7.45431 41.2433 9.04288 41.2433 11.12C41.2433 13.6859 42.8319 14.7248 46.4975 16.3137L48.6358 17.23C55.9063 20.3463 60 23.5227 60 30.6709C60 38.3698 53.9515 42.5851 45.8256 42.5851C37.8831 42.5851 32.7508 38.7972 30.246 33.848Z" fill="#F0DB4F"/>
</svg>
