<svg width="60" height="82" viewBox="0 0 60 82" fill="none" xmlns="http://www.w3.org/2000/svg">
<path d="M19.3237 62.9156C19.3237 62.9156 16.2149 64.7234 21.5362 65.3351C27.9829 66.0705 31.2775 65.9652 38.3818 64.6205C38.3818 64.6205 40.2497 65.7916 42.858 66.8061C26.9323 73.6316 6.81464 66.4106 19.3237 62.9156ZM17.3776 54.0085C17.3776 54.0085 13.8907 56.5897 19.216 57.1404C26.1025 57.8508 31.5408 57.909 40.9514 56.0969C40.9514 56.0969 42.2531 57.4165 44.2998 58.1382C25.0444 63.7687 3.59753 58.5822 17.3776 54.0085Z" fill="#5382A1"/>
<path d="M33.7834 38.8996C37.7076 43.4174 32.7524 47.483 32.7524 47.483C32.7524 47.483 42.7163 42.3393 38.1403 35.898C33.8665 29.8915 30.5889 26.9067 48.332 16.6165C48.332 16.6165 20.4813 23.5725 33.7834 38.8996Z" fill="#E76F00"/>
<path d="M54.8467 69.5036C54.8467 69.5036 57.1473 71.3991 52.3129 72.8656C43.1204 75.6505 14.0524 76.4914 5.97731 72.9765C3.07466 71.714 8.51817 69.9615 10.2304 69.5936C12.0161 69.2064 13.0367 69.2787 13.0367 69.2787C9.8085 67.0045 -7.82886 73.744 4.07786 75.6738C36.5489 80.9397 63.2692 73.3028 54.8467 69.5036ZM20.8185 44.78C20.8185 44.78 6.0329 48.2921 15.5827 49.5671C19.6148 50.107 27.6529 49.9849 35.1403 49.3574C41.2593 48.8416 47.4036 47.7439 47.4036 47.7439C47.4036 47.7439 45.246 48.668 43.685 49.7338C28.6702 53.6828 -0.335608 51.8458 8.0148 47.8064C15.0768 44.3928 20.8185 44.78 20.8185 44.78ZM47.3426 59.6059C62.6061 51.6745 55.5489 44.0527 50.6231 45.0797C49.4157 45.3307 48.8774 45.5484 48.8774 45.5484C48.8774 45.5484 49.3257 44.8465 50.1817 44.5426C59.9263 41.1166 67.4207 54.6469 47.0359 60.0056C47.0359 60.0059 47.2722 59.7948 47.3426 59.6059Z" fill="#5382A1"/>
<path d="M38.1404 0.000235545C38.1404 0.000235545 46.5935 8.45641 30.123 21.4589C16.9156 31.8894 27.1113 37.8366 30.1176 44.6314C22.4081 37.6757 16.7503 31.5524 20.5461 25.8535C26.1171 17.4876 41.5509 13.4319 38.1404 0.000235545Z" fill="#E76F00"/>
<path d="M22.3185 81.0981C36.9693 82.036 59.4672 80.5777 60 73.6453C60 73.6453 58.9759 76.2736 47.8919 78.3605C35.3871 80.7137 19.9644 80.439 10.8169 78.9308C10.8171 78.9308 12.6893 80.4807 22.3185 81.0981Z" fill="#5382A1"/>
</svg>
