<svg width="60" height="71" viewBox="0 0 60 71" fill="none" xmlns="http://www.w3.org/2000/svg">
<path d="M21.6268 19.8325L21.8196 24.2676L18.7344 30.0525L13.9136 39.5012L12.9495 47.4072L16.4204 58.5914L24.3264 63.0265H36.2819L47.4661 54.5419L52.4796 41.2367L40.9098 27.1601L37.6317 19.254L21.6268 19.8325Z" fill="#ECEFF1"/>
<path d="M49.0088 30.8239C45.9236 26.3888 43.4168 23.6892 42.067 18.0971C40.7172 12.5051 42.4526 14.0477 41.2956 9.22694C40.7172 6.72015 39.753 4.98468 38.7889 3.63487C37.6319 2.28506 36.2821 1.51374 35.5107 1.32091C33.7753 0.356759 29.7258 -1.18588 24.7123 1.51374C19.5058 4.21336 20.0843 9.99827 21.0485 21.7609C21.0485 22.5322 20.8557 23.4964 20.47 24.2677C19.6987 26.0032 18.3489 27.5458 17.1919 28.8956C15.8421 30.8239 14.4923 32.7522 13.5281 34.8733C11.2141 39.3084 9.09302 44.9005 9.67151 47.0216C10.6357 46.8288 22.784 65.3405 22.784 65.7262C23.5553 65.5333 26.8334 65.5333 29.7258 65.5333C33.7753 65.3405 36.0892 65.1477 39.3673 65.919C39.3673 65.3405 39.1745 64.762 39.1745 64.1835C39.1745 63.0265 39.3673 62.0624 39.5602 60.7126C39.753 59.7484 39.9458 58.7843 40.1387 57.6273C38.2104 59.3628 34.7394 61.2911 31.4613 61.8696C28.5689 62.4481 23.7481 61.4839 21.4341 58.5914C21.627 58.5914 22.0126 58.5915 22.2055 58.3986C22.784 58.2058 23.3624 58.013 23.5553 57.6273C24.1338 56.6632 23.7481 55.699 23.3624 55.1205C22.9768 54.542 20.0843 52.4209 18.7345 51.2639C17.3847 50.1069 16.6134 49.5284 15.8421 48.7571L14.2994 47.2145C13.9138 46.8288 13.7209 46.4432 13.5281 46.2503C13.1424 45.2862 12.9496 44.1292 13.1424 42.5866C13.3353 40.4654 14.1066 38.7299 15.0708 36.8017C15.4564 36.0303 16.4206 34.4877 16.4206 34.4877C16.4206 34.4877 13.1424 42.5866 14.8779 45.0933C14.8779 45.0933 15.0708 42.5866 15.8421 40.0798C16.4206 38.3443 17.3847 35.8375 18.5417 34.4877C19.6987 33.1379 22.5911 28.1243 22.784 25.039C22.784 23.6892 22.9768 22.3394 22.9768 21.3752C22.2055 20.6039 35.7036 18.6756 36.4749 20.7968C36.6677 21.5681 39.3673 28.51 40.91 32.1737C41.6813 33.9092 42.6455 35.4518 43.2239 37.3801C43.8024 39.5013 44.1881 42.3937 44.1881 45.2862C44.1881 45.8647 44.1881 46.8288 43.9953 47.793C44.3809 47.793 51.9013 39.6941 43.0311 32.945C43.0311 32.945 48.4304 35.4518 48.6232 40.4654C48.816 44.5149 47.0805 47.793 46.6949 48.3715C46.8877 48.3715 50.7443 50.1069 50.9371 50.1069C51.7085 50.1069 53.2511 49.5284 53.2511 49.5284C53.4439 48.9499 54.0224 47.4073 54.0224 46.8288C55.3722 42.3937 52.0941 35.259 49.0088 30.8239Z" fill="#263238"/>
<path d="M24.5195 18.0971C25.904 18.0971 27.0263 16.3705 27.0263 14.2405C27.0263 12.1106 25.904 10.3839 24.5195 10.3839C23.135 10.3839 22.0127 12.1106 22.0127 14.2405C22.0127 16.3705 23.135 18.0971 24.5195 18.0971Z" fill="#ECEFF1"/>
<path d="M33.1968 18.4827C35.0073 18.4827 36.4749 16.4971 36.4749 14.0476C36.4749 11.5982 35.0073 9.61255 33.1968 9.61255C31.3864 9.61255 29.9187 11.5982 29.9187 14.0476C29.9187 16.4971 31.3864 18.4827 33.1968 18.4827Z" fill="#ECEFF1"/>
<path d="M25.9209 14.5041C25.7606 13.2363 25.0311 12.2842 24.2915 12.3777C23.5519 12.4712 23.0823 13.5748 23.2425 14.8427C23.4028 16.1105 24.1323 17.0626 24.8719 16.9691C25.6115 16.8756 26.0811 15.772 25.9209 14.5041Z" fill="#212121"/>
<path d="M33.0037 17.3258C34.0687 17.3258 34.932 16.2034 34.932 14.819C34.932 13.4345 34.0687 12.3122 33.0037 12.3122C31.9388 12.3122 31.0754 13.4345 31.0754 14.819C31.0754 16.2034 31.9388 17.3258 33.0037 17.3258Z" fill="#212121"/>
<path d="M58.6502 57.2416C57.8789 56.856 56.5291 56.2775 55.3721 54.542C54.7936 53.5779 54.9864 50.8782 54.0223 49.7213C53.4438 48.9499 52.6725 49.3356 52.4796 49.3356C50.7442 49.7213 46.6947 52.4209 43.9951 49.3356C43.6094 48.9499 43.031 48.3715 42.0668 48.3715C41.1026 48.3715 40.717 48.7571 40.3313 49.5284C39.9457 50.2998 39.9457 50.8782 39.9457 52.8065C39.9457 54.3492 39.9457 56.0847 39.7528 57.4345C39.3672 60.7126 38.7887 62.6409 38.7887 64.5692C38.7887 66.6903 39.3672 68.0401 40.1385 68.6186C40.717 69.1971 41.6811 69.5828 43.8023 69.5828C45.9234 69.5828 47.2732 68.8114 48.623 67.4616C49.5872 66.4975 50.3585 66.1118 53.0581 64.1835C55.1792 62.8337 58.4574 61.0982 59.0359 60.5197C59.4215 60.1341 60 59.9413 60 58.7843C60 57.8201 59.2287 57.4345 58.6502 57.2416ZM19.8913 57.8201C17.963 54.7348 17.7702 54.1564 16.4204 52.2281C15.2634 50.2998 12.7566 46.636 11.214 46.636C10.057 46.636 9.47851 47.2145 8.70719 47.9858C7.93586 48.7571 7.16455 50.4926 5.81473 51.4567C4.65775 52.4209 1.37964 52.2281 0.608321 53.385C-0.163 54.542 1.37964 56.2775 1.37964 59.1699C1.37964 60.3269 0.415491 61.0982 0.222661 61.8696C0.0298309 62.8337 -0.162999 63.4122 0.222661 64.1835C0.993982 65.3405 1.95813 65.7262 8.51436 67.076C11.9853 67.8473 15.2634 69.7756 17.3845 69.9684C19.5057 70.1613 23.1694 69.9684 23.1694 64.762C23.3623 61.6767 21.6268 60.9054 19.8913 57.8201ZM23.5551 22.9179C22.3981 22.1466 21.434 21.3752 21.434 20.2183C21.434 19.0613 22.2053 18.6756 23.3623 17.7115C23.5551 17.5186 25.6762 15.5903 27.7974 15.5903C29.9185 15.5903 32.4253 16.9401 33.3894 17.3258C35.1249 17.7115 36.8604 18.0971 36.6676 19.4469C36.4747 21.3752 36.2819 21.7609 34.3536 22.725C33.0038 23.1107 30.497 25.2318 28.7615 25.2318C27.9902 25.2318 26.8332 25.2318 26.0619 25.039C25.4834 24.8462 24.5193 23.882 23.5551 22.9179Z" fill="#FFC107"/>
<path d="M23.1695 21.3753C23.5551 21.7609 24.1336 22.1466 24.7121 22.3394C25.0978 22.5323 25.6763 22.7251 25.6763 22.7251H27.4117C28.3759 22.7251 29.7257 22.3394 31.0755 21.5681C32.4253 20.9896 32.6181 20.604 33.5823 20.2183C34.5464 19.6398 35.5106 19.0613 35.1249 18.8685C34.7393 18.6757 34.3536 18.8685 33.0038 19.6398C31.8468 20.4111 30.8827 20.7968 29.7257 21.3753C29.1472 21.5681 28.3759 21.9538 27.7974 21.9538H26.0619C25.4834 21.9538 25.0978 21.7609 24.5193 21.5681C24.1336 21.3753 23.9408 21.1824 23.748 21.1824C23.3623 20.9896 22.591 20.2183 22.2053 20.0255C22.2053 20.0255 21.8197 20.0255 22.0125 20.2183L23.1695 21.3753ZM28.9544 17.133C29.1472 17.5187 29.5329 17.5187 29.7257 17.7115C29.9185 17.9043 30.1114 17.9043 30.1114 17.9043C30.3042 17.7115 30.1114 17.3258 29.9185 17.3258C29.9185 16.9402 28.9544 16.9402 28.9544 17.133ZM25.8691 17.5187C25.8691 17.7115 26.2548 17.9043 26.2548 17.7115C26.4476 17.5187 26.6404 17.3258 26.8332 17.3258C27.2189 17.133 27.0261 16.9402 26.4476 16.9402C26.0619 17.133 26.0619 17.3258 25.8691 17.5187Z" fill="#634703"/>
<path d="M44.5736 51.6496V52.2281C44.9592 52.9994 45.9234 53.1922 46.6947 53.1922C47.8517 53.1922 49.0087 52.4209 49.5871 51.6496C49.5871 51.4567 49.78 51.2639 49.9728 51.0711C50.3585 50.4926 50.5513 50.1069 50.7441 49.9141C50.7441 49.9141 50.5513 49.7213 50.5513 49.5284C50.3585 49.1428 49.78 48.7571 49.0087 48.5643C48.4302 48.3715 47.466 48.1786 47.0804 48.1786C45.3449 47.9858 44.3807 48.5643 43.8022 49.1428C43.8022 49.1428 43.9951 49.1428 43.9951 49.3356C44.3807 49.7213 44.5736 50.1069 44.5736 50.6854C44.7664 51.0711 44.5736 51.2639 44.5736 51.6496Z" fill="#455A64"/>
</svg>
