<svg width="75" height="52" viewBox="0 0 75 52" fill="none" xmlns="http://www.w3.org/2000/svg">
<path d="M22.311 33.7349L24.5903 41.1305C25.1024 42.8097 25.316 43.9818 25.2305 44.6499C26.477 41.3113 27.348 37.6729 27.8436 33.7349H30.5843C29.4059 40.146 27.8515 44.8048 25.9222 47.711C24.4189 49.9506 22.7722 51.0703 20.9789 51.0703C20.5008 51.0703 19.9113 50.9259 19.2119 50.6391V49.0937C19.5536 49.1438 19.9545 49.1706 20.4157 49.1706C21.2522 49.1706 21.9265 48.9387 22.4395 48.476C23.0537 47.9121 23.3612 47.2785 23.3612 46.5761C23.3612 46.0965 23.1214 45.1122 22.644 43.6234L19.4682 33.7349H22.311ZM4.86665 29.1894L9.04145 41.9271H9.06723L13.2677 29.1894H16.6995C17.451 35.5064 17.8948 41.2862 18.0311 46.5252H15.1377C15.0359 41.6278 14.7539 37.0226 14.2928 32.7088H14.2676L9.86162 46.5252H7.6582L3.27891 32.7088H3.25312C2.92822 36.8517 2.72373 41.4569 2.63848 46.5252H0C0.170508 40.3612 0.597217 34.5831 1.28013 29.1894H4.86665Z" fill="#00758F"/>
<path d="M51.6355 28.9322C56.1263 28.9322 58.3718 31.8012 58.3718 37.5365C58.3718 40.6531 57.6965 43.0072 56.3472 44.5976C56.1041 44.8883 55.8353 45.1393 55.5522 45.3719L58.7302 46.9433L58.7271 46.9431L57.5988 48.8917L53.4602 46.4769C52.7742 46.6801 52.0193 46.7816 51.1968 46.7816C48.9918 46.7816 47.3447 46.1389 46.2558 44.8553C45.0605 43.4353 44.4631 41.1998 44.4631 38.1526C44.4631 35.0536 45.1372 32.7084 46.4869 31.1159C47.7162 29.6593 49.4327 28.9322 51.6355 28.9322ZM37.8836 28.9573C39.4886 28.9573 40.948 29.3868 42.2626 30.2427L41.5949 31.7306C40.4701 31.2525 39.361 31.0124 38.2674 31.0124C37.38 31.0124 36.6962 31.226 36.2195 31.6557C35.7402 32.0817 35.4438 32.6299 35.4438 33.2981C35.4438 34.325 36.1753 35.2155 37.526 35.9678C37.9685 36.2097 38.4095 36.4544 38.8489 36.7018L38.9497 36.7585L39.0002 36.7869L39.1012 36.8436L39.1516 36.872L39.2523 36.9289C40.2748 37.5053 41.2369 38.0555 41.2369 38.0555C42.5875 39.0142 43.2607 40.0364 43.2607 41.7199C43.2607 43.1902 42.722 44.3971 41.648 45.3415C40.5732 46.2816 39.1293 46.753 37.3211 46.753C35.6299 46.753 33.9909 46.2104 32.4033 45.1343L33.146 43.6452C34.5123 44.33 35.7486 44.672 36.8588 44.672C37.9 44.672 38.715 44.4396 39.3046 43.9805C39.8931 43.518 40.2457 42.8731 40.2457 42.0552C40.2457 41.0259 39.5296 40.146 38.2161 39.4078C37.805 39.1807 37.3951 38.9513 36.9864 38.7198L36.8857 38.6628C36.7009 38.5584 36.5147 38.4526 36.3323 38.349L36.2334 38.2928C35.3465 37.7883 34.5796 37.3475 34.5796 37.3475C33.2666 36.387 32.6081 35.3565 32.6081 33.6585C32.6081 32.2541 33.0991 31.119 34.0797 30.2555C35.0626 29.3901 36.3307 28.9573 37.8836 28.9573ZM63.6495 29.1894V44.3927H69.1043V46.5252H60.883V29.1894H63.6495ZM72.1353 44.3993V44.7596H71.5356V46.5233H71.0771V44.7596H70.4541V44.3993H72.1354H72.1353ZM73.2427 44.3993L73.8186 45.8471L74.3475 44.3993H74.9975V46.5233H74.5653V44.9069L73.9633 46.5233H73.6517L73.0486 44.9069H73.0255V46.5233H72.6167V44.3993H73.2429H73.2427ZM51.3531 31.0641C48.7067 31.0641 47.3828 33.2482 47.3828 37.6134C47.3828 40.1139 47.7336 41.9271 48.434 43.0572C49.0826 44.1031 50.0985 44.625 51.4817 44.625C54.1281 44.625 55.4519 42.4239 55.4519 38.0238C55.4519 35.5584 55.1011 33.7607 54.4016 32.63C53.7522 31.5864 52.7368 31.0641 51.3533 31.0641H51.3531Z" fill="#F29111"/>
<path d="M44.4168 1.07418C45.2947 -1.08295 48.3642 0.550645 49.5554 1.30416C49.8474 1.49269 50.1823 1.89098 50.517 2.03819C51.0392 2.0587 51.561 2.09957 52.0841 2.1214C53.0652 2.35196 53.9843 2.54034 54.7574 2.98067C58.3504 5.09664 60.6893 7.25289 62.8419 10.8145C63.3018 11.5689 63.5317 12.3853 63.9074 13.2016C64.4289 14.4185 65.0148 15.6958 65.6201 16.8464C65.8911 17.392 66.1007 17.9985 66.477 18.4592C66.624 18.6699 67.0413 18.732 67.2907 18.8578C67.9804 19.2148 68.8159 19.4858 69.4646 19.9047C70.6759 20.66 71.847 21.56 72.9116 22.4814C73.3085 22.8371 73.5789 23.3405 73.957 23.7167V23.9066C73.6214 24.0095 73.2869 24.115 72.9522 24.1995C72.2211 24.3873 71.5735 24.3448 70.8642 24.5328C70.4259 24.6599 69.8818 24.8276 69.4221 24.8703L69.4646 24.913C69.735 25.6858 71.1981 26.3142 71.8672 26.7763C72.6799 27.3629 73.433 28.0742 74.0391 28.8911C74.2485 29.0996 74.4578 29.2893 74.6661 29.4971C74.8117 29.7078 74.8527 29.9802 75.0001 30.168V30.2316C74.8369 30.174 74.7196 30.0642 74.6084 29.9493L74.542 29.88C74.4757 29.8112 74.4087 29.7435 74.3324 29.6877C73.8713 29.3728 73.4134 28.996 72.9522 28.7032C72.1594 28.2002 71.24 27.9082 70.4259 27.4033C69.9657 27.1102 69.527 26.7763 69.0883 26.4409C68.6905 26.1469 68.2526 25.5823 68.0027 25.1634C67.8554 24.9319 67.8352 24.6599 67.6671 24.4925C67.6971 24.2129 67.9533 24.1298 68.2118 24.0615L68.2713 24.0459C68.3605 24.0227 68.4478 23.9996 68.524 23.969C69.61 23.5078 70.9048 23.3405 72.5768 23.3824C72.5138 22.9626 71.4691 22.4395 71.1355 22.1881C70.4661 21.7056 69.7572 21.2022 69.0471 20.763C68.6708 20.533 68.0223 20.3651 67.6054 20.1772C67.0413 19.9466 65.7875 19.7162 65.4749 19.2771C64.9439 18.5848 64.5625 17.759 64.1922 16.925L64.0914 16.6973C64.0578 16.6215 64.0241 16.5456 63.9903 16.4698C63.5526 15.4654 63.0089 14.4182 62.5701 13.3897C62.3407 12.888 62.2354 12.4477 61.9842 11.9665C60.4597 9.01363 58.2034 6.54142 55.4678 4.80279C54.5689 4.23707 53.5665 3.71354 52.4599 3.35772C51.8328 3.16832 51.0802 3.27306 50.4121 3.12774H49.9723C49.597 3.02198 49.2837 2.62413 48.9909 2.41437C48.3442 1.97521 47.6964 1.68033 46.923 1.367C46.652 1.24132 45.8781 0.948643 45.608 1.17906C45.4407 1.2211 45.3559 1.28424 45.3147 1.45211C45.1483 1.7026 45.2947 2.07994 45.3982 2.31095C45.712 2.98038 46.1503 3.37823 46.5481 3.94395C46.902 4.44566 47.3416 5.01139 47.5926 5.55689C48.134 6.7295 48.3861 8.02867 48.8878 9.20113C49.0738 9.64205 49.3681 10.1438 49.6389 10.5415C49.8685 10.8571 50.2858 11.0854 50.4121 11.485C50.6637 11.9039 50.0353 13.2863 49.8899 13.7253C49.3457 15.4431 49.4511 17.831 50.0778 19.32L50.1112 19.3985L50.1446 19.478C50.3734 20.0234 50.6183 20.6107 51.2267 20.7631C51.2686 20.7215 51.2267 20.7434 51.3097 20.7215C51.457 19.569 51.4984 18.4591 51.8957 17.5573C52.1252 16.9935 52.5836 16.5949 52.8978 16.1347C53.1072 16.2601 53.1073 16.6381 53.2321 16.8883C53.5039 17.5373 53.7959 18.2487 54.131 18.8996C54.8189 20.2399 55.5929 21.5394 56.4699 22.7118C56.7636 23.1306 57.1804 23.5916 57.5563 23.9688C57.7237 24.1149 57.9112 24.1992 58.037 24.3872H58.0781V24.4504C57.4514 24.2194 57.0541 23.5711 56.5543 23.1926C55.6133 22.4811 54.4864 21.4127 53.8378 20.3874C53.5665 19.7988 53.2732 19.2347 52.9808 18.6491V18.6067C52.8559 18.774 52.8978 18.9401 52.8352 19.1933C52.5639 20.2399 52.7728 21.4339 51.8328 21.8104C50.7673 22.2513 49.9725 21.0989 49.6389 20.5752C48.5731 18.837 48.2812 15.9047 49.0328 13.5377C49.1998 13.0137 49.2225 12.3853 49.514 11.9669C49.451 11.5887 49.1595 11.4853 48.9909 11.2535C48.6985 10.8574 48.4482 10.396 48.2192 9.95611C47.7795 9.09684 47.4666 8.07013 47.1327 7.14859C46.986 6.77227 46.9439 6.39449 46.7976 6.03824C46.548 5.49449 46.0879 4.94898 45.7329 4.46793C45.2523 3.77652 43.8525 2.43648 44.4168 1.07418ZM51.2681 5.17794C51.3239 5.2339 51.3913 5.28282 51.4611 5.33102L51.5451 5.38873C51.6572 5.46637 51.7657 5.5481 51.8323 5.65943C51.9377 5.8068 51.9573 5.95226 52.0836 6.09991C52.0836 6.60338 51.9377 6.9381 51.6431 7.14669C51.6431 7.14669 51.6231 7.16866 51.6024 7.18917C51.4354 6.85357 51.2891 6.51974 51.1209 6.18443C50.9138 5.89176 50.621 5.65958 50.4522 5.32516H50.4116V5.28312C50.6637 5.22086 50.9138 5.17794 51.2681 5.17794Z" fill="#00758F"/>
</svg>
