<svg width="60" height="68" viewBox="0 0 60 68" fill="none" xmlns="http://www.w3.org/2000/svg">
<path d="M30 67.6086C29.0684 67.6086 28.1988 67.3602 27.3914 66.9254L19.1304 62.0186C17.8882 61.3354 18.5093 61.0869 18.882 60.9627C20.5589 60.4037 20.8695 60.2795 22.6085 59.2855C22.7951 59.1613 23.0435 59.2234 23.2296 59.3476L29.5652 63.1365C29.8137 63.2607 30.1242 63.2607 30.3105 63.1365L55.0934 48.7888C55.3418 48.6646 55.466 48.4161 55.466 48.1056V19.4718C55.466 19.1612 55.3418 18.9128 55.0934 18.7886L30.3105 4.5027C30.0621 4.37848 29.7516 4.37848 29.5652 4.5027L4.78242 18.7888C4.53398 18.913 4.40977 19.2236 4.40977 19.472V48.1056C4.40977 48.354 4.53398 48.6646 4.78242 48.7888L11.5528 52.7017C15.2175 54.565 17.5153 52.3911 17.5153 50.2173V21.9561C17.5153 21.5835 17.8261 21.2108 18.2609 21.2108H21.4287C21.8013 21.2108 22.174 21.5214 22.174 21.9561V50.2171C22.174 55.1239 19.503 57.981 14.8446 57.981C13.4161 57.981 12.2981 57.981 9.13055 56.4282L2.60859 52.7017C0.99375 51.7698 0 50.0307 0 48.1675V19.5341C0 17.6708 0.99375 15.9318 2.60859 14.9999L27.3914 0.652148C28.9441 -0.217383 31.0559 -0.217383 32.6086 0.652148L57.3914 14.9999C59.0062 15.9315 60 17.6706 60 19.5341V48.1677C60 50.031 59.0062 51.77 57.3914 52.7017L32.6086 67.0499C31.8012 67.4225 30.8695 67.6089 30 67.6089V67.6086ZM37.6397 47.919C26.7701 47.919 24.5341 42.9503 24.5341 38.7266C24.5341 38.3539 24.8447 37.9813 25.2795 37.9813H28.5091C28.8818 37.9813 29.1926 38.2297 29.1926 38.6024C29.6895 41.8942 31.118 43.5093 37.7018 43.5093C42.9192 43.5093 45.1554 42.3292 45.1554 39.5343C45.1554 37.9192 44.5343 36.7391 36.3975 35.9314C29.6273 35.2482 25.4037 33.7576 25.4037 28.3541C25.4037 23.3228 29.6271 20.3415 36.708 20.3415C44.6583 20.3415 48.5714 23.0743 49.0683 29.0371C49.0683 29.2234 49.0062 29.4097 48.882 29.5961C48.7577 29.7203 48.5714 29.8445 48.3851 29.8445H45.1554C44.8446 29.8445 44.5343 29.5961 44.472 29.2855C43.7266 25.8695 41.8013 24.7515 36.708 24.7515C30.994 24.7515 30.3105 26.739 30.3105 28.2296C30.3105 30.0311 31.118 30.5898 38.8198 31.5836C46.4597 32.5773 50.062 34.0061 50.062 39.3477C49.9999 44.8136 45.528 47.919 37.6397 47.919Z" fill="#539E43"/>
</svg>
