<svg width="80" height="43" viewBox="0 0 80 43" fill="none" xmlns="http://www.w3.org/2000/svg">
<path d="M40 42.0625C62.0914 42.0625 80 32.6465 80 21.0312C80 9.41601 62.0914 0 40 0C17.9086 0 0 9.41601 0 21.0312C0 32.6465 17.9086 42.0625 40 42.0625Z" fill="url(#paint0_radial_18_57)"/>
<path d="M40 40.5C61.2284 40.5 78.4375 31.7835 78.4375 21.0313C78.4375 10.279 61.2284 1.5625 40 1.5625C18.7716 1.5625 1.5625 10.279 1.5625 21.0313C1.5625 31.7835 18.7716 40.5 40 40.5Z" fill="#6181B6"/>
<path d="M47.7813 27.3438L49.6875 17.5312C50.125 15.3125 49.75 13.6562 48.625 12.625C47.5313 11.625 45.6563 11.125 42.9063 11.125H39.5938L40.5313 6.25C40.5625 6.0625 40.5313 5.875 40.4063 5.71875C40.2813 5.5625 40.125 5.5 39.9375 5.5H35.375C35.0625 5.5 34.8125 5.71875 34.75 6L32.7188 16.4062C32.5313 15.2188 32.0938 14.2188 31.3438 13.4063C30 11.875 27.9063 11.0938 25.0625 11.0938H16.2813C15.9688 11.0938 15.7188 11.3125 15.6563 11.5937L11.5625 32.7188C11.5313 32.9062 11.5625 33.0938 11.6875 33.25C11.8125 33.4062 11.9688 33.4688 12.1563 33.4688H16.75C17.0625 33.4688 17.3125 33.25 17.375 32.9688L18.375 27.875H21.7813C23.5625 27.875 25.0938 27.6875 26.25 27.3125C27.4688 26.9063 28.5625 26.25 29.5313 25.3438C30.3125 24.625 30.9688 23.8125 31.4688 22.9375L30.6563 27.1562C30.625 27.3438 30.6563 27.5312 30.7813 27.6875C30.9063 27.8438 31.0625 27.9063 31.25 27.9063H35.8125C36.125 27.9063 36.375 27.6875 36.4375 27.4062L38.6875 15.8438H41.8125C43.1563 15.8438 43.5313 16.0938 43.6563 16.2188C43.75 16.3125 43.9375 16.6875 43.7188 17.8438L41.9063 27.1875C41.875 27.375 41.9063 27.5625 42.0313 27.7188C42.1563 27.875 42.3125 27.9375 42.5 27.9375H47.1875C47.4688 27.8438 47.7188 27.625 47.7813 27.3438ZM26.6563 19.2188C26.375 20.6875 25.8438 21.75 25.0625 22.3438C24.2813 22.9375 23 23.25 21.3125 23.25H19.2813L20.75 15.6875H23.375C25.3125 15.6875 26.0938 16.0938 26.4063 16.4375C26.8125 16.9375 26.9063 17.9063 26.6563 19.2188ZM67.2813 13.4063C65.9375 11.875 63.8438 11.0938 61 11.0938H52.1563C51.8438 11.0938 51.5938 11.3125 51.5313 11.5937L47.4375 32.6875C47.4063 32.875 47.4375 33.0625 47.5625 33.2188C47.6875 33.375 47.8438 33.4375 48.0313 33.4375H52.625C52.9375 33.4375 53.1875 33.2188 53.25 32.9375L54.25 27.8438H57.6563C59.4375 27.8438 60.9688 27.6563 62.125 27.2813C63.3438 26.875 64.4375 26.2188 65.4063 25.3125C66.2188 24.5625 66.9063 23.7188 67.4063 22.8125C67.9063 21.9062 68.2813 20.9063 68.5 19.8125C69.0313 17.0938 68.625 14.9688 67.2813 13.4063ZM62.5 19.2188C62.2188 20.6875 61.6875 21.75 60.9063 22.3438C60.125 22.9375 58.8438 23.25 57.1563 23.25H55.125L56.5938 15.6875H59.2188C61.1563 15.6875 61.9375 16.0938 62.25 16.4375C62.6875 16.9375 62.7813 17.9063 62.5 19.2188Z" fill="white"/>
<path d="M23.375 15.0625C25.125 15.0625 26.2812 15.375 26.875 16.0312C27.4688 16.6875 27.5938 17.7813 27.2813 19.3438C26.9688 20.9688 26.3438 22.1562 25.4375 22.8438C24.5312 23.5312 23.1562 23.875 21.3125 23.875H18.5312L20.25 15.0625H23.375ZM12.1875 32.8125H16.7812L17.875 27.2188H21.8125C23.5625 27.2188 24.9688 27.0313 26.0938 26.6563C27.2188 26.2813 28.2188 25.6875 29.1562 24.8125C29.9375 24.0938 30.5625 23.3125 31.0312 22.4688C31.5 21.625 31.8438 20.6875 32.0312 19.6563C32.5312 17.1563 32.1562 15.2188 30.9375 13.8125C29.7188 12.4062 27.7812 11.7188 25.125 11.7188H16.2812L12.1875 32.8125ZM35.4062 6.125H39.9688L38.875 11.7188H42.9375C45.5 11.7188 47.25 12.1562 48.2188 13.0625C49.1875 13.9687 49.4688 15.4062 49.0938 17.4062L47.1875 27.2188H42.5625L44.375 17.875C44.5938 16.8125 44.5 16.0938 44.1562 15.7188C43.8125 15.3438 43.0312 15.125 41.875 15.125H38.2188L35.875 27.2188H31.3125L35.4062 6.125ZM59.2188 15.0625C60.9688 15.0625 62.125 15.375 62.7188 16.0312C63.3125 16.6875 63.4375 17.7813 63.125 19.3438C62.8125 20.9688 62.1875 22.1562 61.2812 22.8438C60.375 23.5312 59 23.875 57.1562 23.875H54.375L56.0938 15.0625H59.2188ZM48.0312 32.8125H52.625L53.7188 27.2188H57.6562C59.4062 27.2188 60.8125 27.0313 61.9375 26.6563C63.0625 26.2813 64.0625 25.6875 65 24.8125C65.7812 24.0938 66.4062 23.3125 66.875 22.4688C67.3438 21.625 67.6875 20.6875 67.875 19.6563C68.375 17.1563 68 15.2188 66.7812 13.8125C65.5625 12.4062 63.625 11.7188 60.9688 11.7188H52.125L48.0312 32.8125Z" fill="#000004"/>
<defs>
<radialGradient id="paint0_radial_18_57" cx="0" cy="0" r="1" gradientUnits="userSpaceOnUse" gradientTransform="translate(24.0161 7.3961) scale(52.5298 52.5298)">
<stop stop-color="white"/>
<stop offset="0.5" stop-color="#4C6B97"/>
<stop offset="1" stop-color="#231F20"/>
</radialGradient>
</defs>
</svg>
