<svg width="82" height="72" viewBox="0 0 82 72" fill="none" xmlns="http://www.w3.org/2000/svg">
<path d="M41.0004 43.4028C45.0254 43.4028 48.2879 40.1399 48.2879 36.1153C48.2879 32.0906 45.0254 28.8278 41.0004 28.8278C36.9758 28.8278 33.7129 32.0906 33.7129 36.1153C33.7129 40.1399 36.9758 43.4028 41.0004 43.4028Z" fill="#00D8FF"/>
<path d="M41.0008 21.2981C50.7852 21.2981 59.8746 22.702 66.7281 25.0618C74.9855 27.9043 80.0625 32.2133 80.0625 36.1153C80.0625 40.1813 74.682 44.759 65.8145 47.6969C59.1105 49.918 50.2887 51.0774 41.0008 51.0774C31.4781 51.0774 22.4605 49.9891 15.6809 47.6723C7.10352 44.7407 1.9375 40.104 1.9375 36.1153C1.9375 32.245 6.78516 27.9692 14.9266 25.1309C21.8055 22.7325 31.1191 21.2981 40.9992 21.2981H41.0008Z" stroke="#00D8FF" stroke-width="2"/>
<path d="M28.1018 28.7492C32.9901 20.2734 38.7467 13.1008 44.2147 8.34296C50.8022 2.60976 57.0717 0.364448 60.4514 2.31328C63.9737 4.34453 65.2514 11.293 63.3666 20.4422C61.9428 27.359 58.5389 35.5801 53.8987 43.6262C49.1412 51.8754 43.694 59.1434 38.3006 63.8574C31.476 69.823 24.878 71.982 21.4229 69.9894C18.0702 68.0574 16.7881 61.7211 18.3967 53.2504C19.7557 46.093 23.1662 37.3082 28.1002 28.7492H28.1018Z" stroke="#00D8FF" stroke-width="2"/>
<path d="M28.1141 43.6476C23.2121 35.1812 19.8746 26.6101 18.4817 19.4969C16.8047 10.9262 17.9903 4.37342 21.3672 2.41873C24.8864 0.38123 31.5438 2.74451 38.5289 8.94685C43.8102 13.6359 49.2332 20.6894 53.8867 28.7277C58.6578 36.9691 62.2336 45.3187 63.6246 52.3453C65.3848 61.2375 63.9602 68.0316 60.5082 70.0297C57.159 71.9687 51.0297 69.916 44.4942 64.2918C38.9723 59.5402 33.0645 52.1984 28.1141 43.6476Z" stroke="#00D8FF" stroke-width="2"/>
</svg>
