<svg width="60" height="60" viewBox="0 0 60 60" fill="none" xmlns="http://www.w3.org/2000/svg">
<path d="M54.4646 43.1438C47.078 52.9837 31.3055 49.6628 21.1905 50.1385C21.1905 50.1385 19.3984 50.2402 17.5974 50.5364C17.5974 50.5364 18.2795 50.2462 19.1501 49.944C26.2525 47.4878 29.6092 46.9942 33.9263 44.7773C42.0339 40.6248 50.1056 31.5748 51.7481 22.1748C48.6606 31.2158 39.2725 38.9973 30.7251 42.1566C24.8763 44.3166 14.2945 46.4168 14.2915 46.4168C14.1478 46.3432 14.0051 46.2674 13.8637 46.1894C6.66858 42.6891 6.45916 27.1021 19.5301 22.079C25.2622 19.8771 30.7401 21.0858 36.936 19.6108C43.5417 18.0402 51.1946 13.0888 54.303 6.61473C57.7884 16.9602 61.9768 33.1395 54.4646 43.1438ZM54.5902 3.41357C53.7546 5.41728 52.6851 7.31523 51.404 9.06795C48.6192 6.19782 45.2864 3.91623 41.6031 2.35855C37.9199 0.800873 33.9613 -0.00117172 29.9622 1.28479e-06C13.4389 1.28479e-06 3.27382e-06 13.4389 3.27382e-06 29.9592C-0.00192611 34.0801 0.848955 38.1569 2.49912 41.9329C4.14929 45.709 6.56303 49.1027 9.58852 51.9006L10.2467 52.481C9.76696 52.0005 9.4977 51.3491 9.49812 50.6701C9.49854 49.9911 9.76861 49.34 10.2489 48.8601C10.7293 48.3801 11.3806 48.1106 12.0596 48.1108C12.7386 48.1109 13.3898 48.3807 13.8699 48.8608C14.35 49.341 14.6198 49.9921 14.62 50.6712C14.6201 51.3502 14.3506 52.0015 13.8706 52.4818C13.3907 52.9621 12.7396 53.2322 12.0606 53.2326C11.3816 53.233 10.7302 52.9638 10.2497 52.484L10.6955 52.8789C16.0818 57.4328 22.9089 59.9283 29.9622 59.9215C45.7526 59.9215 58.7218 47.6314 59.8317 32.1223C60.6515 24.5263 58.4077 14.8809 54.5902 3.41357Z" fill="#0FA958"/>
</svg>
