<svg width="60" height="60" viewBox="0 0 60 60" fill="none" xmlns="http://www.w3.org/2000/svg">
<path d="M54.1406 0H5.85938C2.62333 0 0 2.62333 0 5.85938V54.1406C0 57.3767 2.62333 60 5.85938 60H54.1406C57.3767 60 60 57.3767 60 54.1406V5.85938C60 2.62333 57.3767 0 54.1406 0Z" fill="url(#paint0_linear_18_78)"/>
<path d="M49.3876 7.79999H36.7126C35.1593 7.79999 33.9001 9.05919 33.9001 10.6125V31.2375C33.9001 32.7908 35.1593 34.05 36.7126 34.05H49.3876C50.9409 34.05 52.2001 32.7908 52.2001 31.2375V10.6125C52.2001 9.05919 50.9409 7.79999 49.3876 7.79999Z" fill="white"/>
<path d="M23.2875 7.79999H10.6125C9.05925 7.79999 7.80005 9.05919 7.80005 10.6125V46.2375C7.80005 47.7908 9.05925 49.05 10.6125 49.05H23.2875C24.8409 49.05 26.1 47.7908 26.1 46.2375V10.6125C26.1 9.05919 24.8409 7.79999 23.2875 7.79999Z" fill="white"/>
<defs>
<linearGradient id="paint0_linear_18_78" x1="3000" y1="0" x2="3000" y2="6000" gradientUnits="userSpaceOnUse">
<stop stop-color="#0091E6"/>
<stop offset="1" stop-color="#0079BF"/>
</linearGradient>
</defs>
</svg>
