<svg width="60" height="40" viewBox="0 0 60 40" fill="none" xmlns="http://www.w3.org/2000/svg">
<path d="M50.1868 0.355026C52.2348 0.831453 54.0957 1.9038 55.5348 3.43676C56.3275 4.2664 57.0158 5.18983 57.5844 6.1865C57.6109 6.29476 53.8941 8.7919 51.6399 10.1848C51.5581 10.2401 51.2333 9.88651 50.8653 9.34281C50.4535 8.63498 49.869 8.04306 49.1664 7.62236C48.4638 7.20166 47.6661 6.96589 46.8477 6.93709C44.2567 6.75906 42.5872 8.11589 42.5992 10.3845C42.5768 10.9418 42.7039 11.495 42.9673 11.9867C43.5374 13.1655 44.5959 13.8728 47.9207 15.3138C54.0408 17.9481 56.6679 19.685 58.2893 22.1533C59.2059 23.7128 59.7703 25.4539 59.9432 27.2546C60.1161 29.0552 59.8932 30.8719 59.2901 32.5773C58.4613 34.4476 57.147 36.0619 55.4836 37.2528C53.8202 38.4436 51.8684 39.1676 49.8308 39.3494C47.6649 39.5979 45.4764 39.5752 43.3161 39.2821C40.007 38.7383 36.9587 37.1501 34.617 34.7497C33.7322 33.7533 32.9831 32.6443 32.3893 31.4514C32.639 31.2657 32.9019 31.0984 33.176 30.951C33.5561 30.7345 34.9947 29.9069 36.3515 29.1203L38.815 27.6768L39.3298 28.4274C40.1969 29.6674 41.3007 30.7238 42.5775 31.5356C43.8671 32.2429 45.3278 32.5781 46.7967 32.5038C48.2656 32.4294 49.685 31.9485 50.8965 31.1146C51.5215 30.5055 51.9122 29.6959 52.0001 28.8276C52.0881 27.9593 51.8678 27.0878 51.3777 26.3657C50.7137 25.4155 49.3569 24.6168 45.5005 22.9448C42.4766 21.9251 39.7224 20.2351 37.4437 18.001C36.3586 16.7644 35.5571 15.3053 35.0957 13.726C34.7545 11.927 34.7042 10.0849 34.9466 8.26986C35.3993 6.18131 36.4831 4.28241 38.0512 2.8305C39.6193 1.37859 41.5959 0.443849 43.713 0.152946C45.8689 -0.104669 48.0513 -0.0365471 50.1868 0.355026ZM30.1159 3.92271L30.1424 7.42064H19.0039V39.0511H11.1492V7.42785H0.0106615V3.99248C-0.0189621 2.81601 0.0131582 1.63879 0.10689 0.465688C0.147788 0.410357 6.9199 0.383894 15.1306 0.398328L30.0726 0.439226L30.1159 3.92271Z" fill="#007ACC"/>
</svg>
